<svg width="86" height="86" viewBox="0 0 86 86" fill="none" xmlns="http://www.w3.org/2000/svg">
<path fill-rule="evenodd" clip-rule="evenodd" d="M0 7C0 3.13401 3.13401 0 7 0L79 0C82.866 0 86 3.13401 86 7V79C86 82.866 82.866 86 79 86H7C3.13401 86 0 82.866 0 79L0 7Z" fill="#969595"/>
<path fill-rule="evenodd" clip-rule="evenodd" d="M46.8139 56.7606C46.8139 56.7606 25.953 56.7606 22.4069 56.7606C18.8609 56.7606 18.9209 53.1213 18.9209 53.1213C18.9209 53.1213 18.9209 34.9306 18.9209 31.0957C18.9209 27.2608 22.4069 26.9807 22.4069 26.9807H31.095L34.0576 22.3606H46.9232L50.1273 26.9807H58.8737C58.8737 26.9807 61.9199 27.5493 61.9199 31.1341C61.9199 34.7189 61.9199 41.4602 61.9199 41.4602" fill="white"/>
<path d="M46.8139 56.7606C46.8139 56.7606 25.953 56.7606 22.4069 56.7606C18.8609 56.7606 18.9209 53.1213 18.9209 53.1213C18.9209 53.1213 18.9209 34.9306 18.9209 31.0957C18.9209 27.2608 22.4069 26.9807 22.4069 26.9807H31.095L34.0576 22.3606H46.9232L50.1273 26.9807H58.8737C58.8737 26.9807 61.9199 27.5493 61.9199 31.1341C61.9199 34.7189 61.9199 41.4602 61.9199 41.4602" stroke="#969595" stroke-linecap="round"/>
<circle cx="40.4197" cy="40.4205" r="7.74" fill="white" stroke="#969595"/>
<path d="M51.5996 67.0831H60.9815V57.7012H51.5996V67.0831ZM53.4759 59.5776H59.1051V65.1922H53.4759V59.5776Z" fill="white"/>
<path d="M57.2278 61.4502H55.3516V63.3266H57.2278V61.4502Z" fill="white"/>
<path d="M68.485 65.2061H66.6084V67.0825H68.485V65.2061Z" fill="white"/>
<path d="M72.2372 65.2061H70.3604V67.0825H72.2372V65.2061Z" fill="white"/>
<path d="M70.3621 59.5778H68.4858V57.7012H62.8564V67.0833H64.7331V61.4541H66.6092V63.3305H72.2385V57.7014V57.7012H70.3621V59.5778Z" fill="white"/>
<path d="M51.5996 55.8226H60.9815V46.4406H51.5996V55.8226ZM53.4759 48.3168H59.1051V53.946H53.4759V48.3168Z" fill="white"/>
<path d="M57.2278 50.193H55.3516V52.0694H57.2278V50.193Z" fill="white"/>
<path d="M62.8564 46.4406V55.8226H72.2387V46.4406H62.8564ZM70.3621 53.946H64.7331V48.3168H70.3621V53.946Z" fill="white"/>
<path d="M68.485 50.193H66.6084V52.0694H68.485V50.193Z" fill="white"/>
</svg>
